<?xml version="1.0" encoding="UTF-8" standalone="no"?>
<!-- Created with Inkscape (http://www.inkscape.org/) -->

<svg
   width="99.999878"
   height="99.999886"
   viewBox="0 0 26.4583 26.458302"
   version="1.1"
   id="svg1"
   inkscape:version="1.3.2 (091e20ef0f, 2023-11-25)"
   xmlns:inkscape="http://www.inkscape.org/namespaces/inkscape"
   xmlns:sodipodi="http://sodipodi.sourceforge.net/DTD/sodipodi-0.dtd"
   xmlns="http://www.w3.org/2000/svg"
   xmlns:svg="http://www.w3.org/2000/svg">
  <sodipodi:namedview
     id="namedview1"
     pagecolor="#ffffff"
     bordercolor="#eeeeee"
     borderopacity="1"
     inkscape:showpageshadow="0"
     inkscape:pageopacity="0"
     inkscape:pagecheckerboard="0"
     inkscape:deskcolor="#505050"
     inkscape:document-units="px"
     showgrid="true"
     inkscape:zoom="1.0280952"
     inkscape:cx="280.1297"
     inkscape:cy="396.8504"
     inkscape:window-width="1920"
     inkscape:window-height="1022"
     inkscape:window-x="0"
     inkscape:window-y="0"
     inkscape:window-maximized="1"
     inkscape:current-layer="layer1">
    <inkscape:grid
       id="grid1"
       units="px"
       originx="-2.0108478"
       originy="-2.1166783"
       spacingx="0.26458333"
       spacingy="0.26458333"
       empcolor="#0099e5"
       empopacity="0.30196078"
       color="#0099e5"
       opacity="0.14901961"
       empspacing="8"
       dotted="false"
       gridanglex="30"
       gridanglez="30"
       visible="true" />
    <inkscape:page
       x="0"
       y="0"
       width="26.4583"
       height="26.458302"
       id="page2"
       margin="0"
       bleed="0" />
  </sodipodi:namedview>
  <defs
     id="defs1" />
  <g
     inkscape:label="Layer 1"
     inkscape:groupmode="layer"
     id="layer1"
     transform="translate(-2.0108478,-2.1166782)">
    <g
       inkscape:label="QR Code: https://www.kalampl.ee/"
       transform="matrix(0.264583,0,0,0.264583,74.1176,105)"
       id="g2">
      <g
         style="fill:#7fe599;stroke:none"
         id="g1"
         transform="translate(-288.5298,-404.85084)">
        <path
           d="M 115.6,116 H 92.4 c -0.2209,0 -0.4,-0.179 -0.4,-0.4 v -7.2 c 0,-0.221 0.1791,-0.4 0.4,-0.4 h 7.2 c 0.2209,0 0.4,-0.179 0.4,-0.4 v -3.2 c 0,-0.221 -0.1791,-0.4 -0.4,-0.4 h -3.2 c -0.2209,0 -0.4,-0.179 -0.4,-0.4 v -3.2 c 0,-0.221 -0.1791,-0.4 -0.4,-0.4 h -3.2 c -0.2209,0 -0.4,0.179 -0.4,0.4 v 3.2 c 0,0.221 -0.1791,0.4 -0.4,0.4 h -3.2 c -0.2209,0 -0.4,-0.179 -0.4,-0.4 v -3.2 c 0,-0.221 -0.1791,-0.4 -0.4,-0.4 h -3.2 c -0.2209,0 -0.4,0.179 -0.4,0.4 v 7.2 c 0,0.221 0.1791,0.4 0.4,0.4 h 3.2 c 0.2209,0 0.4,0.179 0.4,0.4 v 3.2 c 0,0.221 -0.1791,0.4 -0.4,0.4 H 72.4 c -0.2209,0 -0.4,-0.179 -0.4,-0.4 v -3.2 c 0,-0.221 -0.1791,-0.4 -0.4,-0.4 h -7.2 c -0.2209,0 -0.4,0.179 -0.4,0.4 v 3.2 c 0,0.221 0.1791,0.4 0.4,0.4 h 3.2 c 0.2209,0 0.4,0.179 0.4,0.4 v 3.2 c 0,0.221 -0.1791,0.4 -0.4,0.4 h -7.2 c -0.2209,0 -0.4,-0.179 -0.4,-0.4 v -7.2 C 60,108.179 59.8209,108 59.6,108 H 56 v -3.6 c 0,-0.221 -0.1791,-0.4 -0.4,-0.4 h -3.2 c -0.2209,0 -0.4,0.179 -0.4,0.4 v 3.2 c 0,0.221 0.1791,0.4 0.4,0.4 H 56 v 7.6 c 0,0.221 -0.1791,0.4 -0.4,0.4 H 48.4 C 48.1791,116 48,115.821 48,115.6 V 96.4 C 48,96.1791 48.1791,96 48.4,96 h 11.2 c 0.2209,0 0.4,0.1791 0.4,0.4 v 7.2 c 0,0.221 0.1791,0.4 0.4,0.4 h 7.2 c 0.2209,0 0.4,-0.179 0.4,-0.4 v -3.2 C 68,100.179 67.8209,100 67.6,100 H 64.4 C 64.1791,100 64,99.8209 64,99.6 V 92.4 C 64,92.1791 64.1791,92 64.4,92 h 3.2 c 0.2209,0 0.4,0.1791 0.4,0.4 v 3.2 c 0,0.2209 0.1791,0.4 0.4,0.4 H 72 v 7.6 c 0,0.221 0.1791,0.4 0.4,0.4 h 7.2 c 0.2209,0 0.4,-0.179 0.4,-0.4 v -3.2 C 80,100.179 79.8209,100 79.6,100 H 76.4 C 76.1791,100 76,99.8209 76,99.6 V 96 h 3.6 C 79.8209,96 80,95.8209 80,95.6 V 88.4 C 80,88.1791 79.8209,88 79.6,88 H 76 V 84.4 C 76,84.1791 75.8209,84 75.6,84 H 68 V 80.4 C 68,80.1791 68.1791,80 68.4,80 h 3.2 C 71.8209,80 72,79.8209 72,79.6 V 72.4 C 72,72.1791 72.1791,72 72.4,72 h 7.2 C 79.8209,72 80,71.8209 80,71.6 V 68.4 C 80,68.1791 80.1791,68 80.4,68 h 3.2 C 83.8209,68 84,67.8209 84,67.6 V 64.4 C 84,64.1791 83.8209,64 83.6,64 H 76 V 60.4 C 76,60.1791 75.8209,60 75.6,60 H 68 V 56.4 C 68,56.1791 67.8209,56 67.6,56 H 64.4 C 64.1791,56 64,55.8209 64,55.6 V 52 h 3.6 C 67.8209,52 68,51.8209 68,51.6 V 48.4 C 68,48.1791 68.1791,48 68.4,48 h 3.2 c 0.2209,0 0.4,0.1791 0.4,0.4 v 7.2 c 0,0.2209 0.1791,0.4 0.4,0.4 H 80 v 3.6 c 0,0.2209 0.1791,0.4 0.4,0.4 h 3.2 C 83.8209,60 84,59.8209 84,59.6 V 56.4 C 84,56.1791 83.8209,56 83.6,56 H 80 v -4 h 3.6 C 83.8209,52 84,51.8209 84,51.6 V 48.4 C 84,48.1791 84.1791,48 84.4,48 h 3.2 c 0.2209,0 0.4,0.1791 0.4,0.4 v 7.2 c 0,0.2209 0.1791,0.4 0.4,0.4 h 3.2 C 91.8209,56 92,55.8209 92,55.6 V 48.4 C 92,48.1791 92.1791,48 92.4,48 h 3.2 c 0.2209,0 0.4,0.1791 0.4,0.4 v 7.2 c 0,0.2209 0.1791,0.4 0.4,0.4 h 7.2 c 0.221,0 0.4,0.1791 0.4,0.4 v 3.2 c 0,0.2209 -0.179,0.4 -0.4,0.4 H 96.4 C 96.1791,60 96,60.1791 96,60.4 v 3.2 c 0,0.2209 0.1791,0.4 0.4,0.4 h 3.2 c 0.2209,0 0.4,0.1791 0.4,0.4 V 68 H 96.4 C 96.1791,68 96,68.1791 96,68.4 v 3.2 c 0,0.2209 0.1791,0.4 0.4,0.4 h 3.2 c 0.2209,0 0.4,-0.1791 0.4,-0.4 V 68 h 4 v 7.6 c 0,0.2209 -0.179,0.4 -0.4,0.4 h -3.2 c -0.221,0 -0.4,0.1791 -0.4,0.4 v 7.2 c 0,0.2209 0.179,0.4 0.4,0.4 h 3.6 v 4 h -3.6 c -0.221,0 -0.4,0.1791 -0.4,0.4 v 3.2 c 0,0.2209 0.179,0.4 0.4,0.4 h 3.6 v 4 h -3.6 c -0.221,0 -0.4,0.1791 -0.4,0.4 v 3.2 c 0,0.2209 0.179,0.4 0.4,0.4 h 3.2 c 0.221,0 0.4,-0.1791 0.4,-0.4 V 96 h 3.6 c 0.221,0 0.4,-0.1791 0.4,-0.4 V 92.4 C 108,92.1791 107.821,92 107.6,92 H 104 v -4 h 11.6 c 0.221,0 0.4,0.1791 0.4,0.4 v 3.2 c 0,0.2209 -0.179,0.4 -0.4,0.4 h -3.2 c -0.221,0 -0.4,0.1791 -0.4,0.4 v 3.2 c 0,0.2209 0.179,0.4 0.4,0.4 h 3.2 c 0.221,0 0.4,0.1791 0.4,0.4 v 19.2 c 0,0.221 -0.179,0.4 -0.4,0.4 z m -72,0 H 16.4 C 16.1791,116 16,115.821 16,115.6 V 88.4 C 16,88.1791 16.1791,88 16.4,88 h 27.2 c 0.2209,0 0.4,0.1791 0.4,0.4 v 27.2 c 0,0.221 -0.1791,0.4 -0.4,0.4 z m 68.4,-4.4 v -7.2 c 0,-0.221 -0.179,-0.4 -0.4,-0.4 h -3.2 c -0.221,0 -0.4,0.179 -0.4,0.4 v 3.2 c 0,0.221 -0.179,0.4 -0.4,0.4 h -3.2 c -0.221,0 -0.4,0.179 -0.4,0.4 v 3.2 c 0,0.221 0.179,0.4 0.4,0.4 h 7.2 c 0.221,0 0.4,-0.179 0.4,-0.4 z m -72,0 V 92.4 C 40,92.1791 39.8209,92 39.6,92 H 20.4 C 20.1791,92 20,92.1791 20,92.4 v 19.2 c 0,0.221 0.1791,0.4 0.4,0.4 h 19.2 c 0.2209,0 0.4,-0.179 0.4,-0.4 z M 35.6,108 H 24.4 C 24.1791,108 24,107.821 24,107.6 V 96.4 C 24,96.1791 24.1791,96 24.4,96 h 11.2 c 0.2209,0 0.4,0.1791 0.4,0.4 v 11.2 c 0,0.221 -0.1791,0.4 -0.4,0.4 z M 96,95.6 V 84.4 C 96,84.1791 95.8209,84 95.6,84 H 84.4 C 84.1791,84 84,84.1791 84,84.4 v 11.2 c 0,0.2209 0.1791,0.4 0.4,0.4 H 95.6 C 95.8209,96 96,95.8209 96,95.6 Z M 75.6,96 H 72 V 88.4 C 72,88.1791 72.1791,88 72.4,88 H 76 v 8 z m 16,-4 H 88.4 C 88.1791,92 88,91.8209 88,91.6 V 88.4 C 88,88.1791 88.1791,88 88.4,88 h 3.2 c 0.2209,0 0.4,0.1791 0.4,0.4 v 3.2 c 0,0.2209 -0.1791,0.4 -0.4,0.4 z m -36,0 H 48.4 C 48.1791,92 48,91.8209 48,91.6 V 84.4 C 48,84.1791 47.8209,84 47.6,84 H 36.4 C 36.1791,84 36,83.8209 36,83.6 V 80.4 C 36,80.1791 36.1791,80 36.4,80 h 7.2 C 43.8209,80 44,79.8209 44,79.6 V 76.4 C 44,76.1791 43.8209,76 43.6,76 H 36.4 C 36.1791,76 36,75.8209 36,75.6 V 72.4 C 36,72.1791 35.8209,72 35.6,72 H 32 v -4 h 3.6 C 35.8209,68 36,67.8209 36,67.6 V 64.4 C 36,64.1791 36.1791,64 36.4,64 H 44 v 3.6 C 44,67.8209 43.8209,68 43.6,68 H 40.4 C 40.1791,68 40,68.1791 40,68.4 v 3.2 c 0,0.2209 0.1791,0.4 0.4,0.4 H 52 v 3.6 C 52,75.8209 51.8209,76 51.6,76 H 48.4 C 48.1791,76 48,76.1791 48,76.4 v 3.2 c 0,0.2209 0.1791,0.4 0.4,0.4 h 3.2 c 0.2209,0 0.4,0.1791 0.4,0.4 v 7.2 c 0,0.2209 0.1791,0.4 0.4,0.4 H 56 v 3.6 c 0,0.2209 -0.1791,0.4 -0.4,0.4 z m 12,-4 H 64.4 C 64.1791,88 64,87.8209 64,87.6 V 84 h 4 v 3.6 c 0,0.2209 -0.1791,0.4 -0.4,0.4 z m -8,0 H 56 V 84.4 C 56,84.1791 56.1791,84 56.4,84 H 60 v 3.6 c 0,0.2209 -0.1791,0.4 -0.4,0.4 z m 48,-4 H 104 v -3.6 c 0,-0.2209 0.179,-0.4 0.4,-0.4 h 3.2 c 0.221,0 0.4,0.1791 0.4,0.4 v 3.2 c 0,0.2209 -0.179,0.4 -0.4,0.4 z m -44,0 H 60 V 76.4 C 60,76.1791 59.8209,76 59.6,76 H 56.4 C 56.1791,76 56,75.8209 56,75.6 V 72 h 11.6 c 0.2209,0 0.4,0.1791 0.4,0.4 v 3.2 C 68,75.8209 67.8209,76 67.6,76 H 64.4 C 64.1791,76 64,76.1791 64,76.4 V 84 Z m -36,0 H 24.4 C 24.1791,84 24,83.8209 24,83.6 V 76.4 C 24,76.1791 24.1791,76 24.4,76 H 28 v 7.6 c 0,0.2209 -0.1791,0.4 -0.4,0.4 z m -8,0 H 16.4 C 16.1791,84 16,83.8209 16,83.6 V 56.4 C 16,56.1791 16.1791,56 16.4,56 H 20 v 11.6 c 0,0.2209 0.1791,0.4 0.4,0.4 h 3.2 c 0.2209,0 0.4,0.1791 0.4,0.4 v 3.2 C 24,71.8209 23.8209,72 23.6,72 H 20.4 C 20.1791,72 20,72.1791 20,72.4 v 11.2 c 0,0.2209 -0.1791,0.4 -0.4,0.4 z m 96,-4 h -3.2 c -0.221,0 -0.4,-0.1791 -0.4,-0.4 v -3.2 c 0,-0.2209 -0.179,-0.4 -0.4,-0.4 h -3.2 C 108.179,76 108,75.8209 108,75.6 V 68.4 C 108,68.1791 107.821,68 107.6,68 H 104 v -3.6 c 0,-0.2209 0.179,-0.4 0.4,-0.4 h 7.2 c 0.221,0 0.4,-0.1791 0.4,-0.4 v -3.2 c 0,-0.2209 -0.179,-0.4 -0.4,-0.4 h -3.2 C 108.179,60 108,59.8209 108,59.6 V 48.4 c 0,-0.2209 0.179,-0.4 0.4,-0.4 h 3.2 c 0.221,0 0.4,0.1791 0.4,0.4 v 7.2 c 0,0.2209 0.179,0.4 0.4,0.4 h 3.2 c 0.221,0 0.4,0.1791 0.4,0.4 v 11.2 c 0,0.2209 -0.179,0.4 -0.4,0.4 h -3.2 c -0.221,0 -0.4,0.1791 -0.4,0.4 v 3.2 c 0,0.2209 0.179,0.4 0.4,0.4 h 3.2 c 0.221,0 0.4,0.1791 0.4,0.4 v 7.2 c 0,0.2209 -0.179,0.4 -0.4,0.4 z M 92,79.6 V 76.4 C 92,76.1791 91.8209,76 91.6,76 H 88.4 C 88.1791,76 88,76.1791 88,76.4 v 3.2 c 0,0.2209 0.1791,0.4 0.4,0.4 h 3.2 c 0.2209,0 0.4,-0.1791 0.4,-0.4 z m -8,0 V 76.4 C 84,76.1791 83.8209,76 83.6,76 H 80.4 C 80.1791,76 80,76.1791 80,76.4 v 3.2 c 0,0.2209 0.1791,0.4 0.4,0.4 h 3.2 C 83.8209,80 84,79.8209 84,79.6 Z M 31.6,76 H 28 V 72.4 C 28,72.1791 28.1791,72 28.4,72 H 32 v 3.6 C 32,75.8209 31.8209,76 31.6,76 Z M 92,71.6 V 68.4 C 92,68.1791 91.8209,68 91.6,68 H 88.4 C 88.1791,68 88,68.1791 88,68.4 v 3.2 c 0,0.2209 0.1791,0.4 0.4,0.4 h 3.2 C 91.8209,72 92,71.8209 92,71.6 Z M 55.6,72 H 52 V 68.4 C 52,68.1791 51.8209,68 51.6,68 H 48.4 C 48.1791,68 48,67.8209 48,67.6 V 64 h 11.6 c 0.2209,0 0.4,0.1791 0.4,0.4 v 3.2 C 60,67.8209 59.8209,68 59.6,68 H 56.4 C 56.1791,68 56,68.1791 56,68.4 V 72 Z m 20,-4 H 64.4 C 64.1791,68 64,67.8209 64,67.6 V 60.4 C 64,60.1791 64.1791,60 64.4,60 H 68 v 3.6 c 0,0.2209 0.1791,0.4 0.4,0.4 H 76 v 3.6 c 0,0.2209 -0.1791,0.4 -0.4,0.4 z m -44,0 H 28.4 C 28.1791,68 28,67.8209 28,67.6 V 64.4 C 28,64.1791 27.8209,64 27.6,64 H 24.4 C 24.1791,64 24,63.8209 24,63.6 V 60.4 C 24,60.1791 24.1791,60 24.4,60 H 32 v 8 z M 92,63.6 V 60.4 C 92,60.1791 91.8209,60 91.6,60 H 88.4 C 88.1791,60 88,60.1791 88,60.4 v 3.2 c 0,0.2209 0.1791,0.4 0.4,0.4 h 3.2 C 91.8209,64 92,63.8209 92,63.6 Z M 47.6,64 H 44 v -4 h 3.6 c 0.2209,0 0.4,0.1791 0.4,0.4 V 64 Z m 12,-4 H 56.4 C 56.1791,60 56,59.8209 56,59.6 V 52 h 4 v 7.6 c 0,0.2209 -0.1791,0.4 -0.4,0.4 z m -16,0 H 40.4 C 40.1791,60 40,59.8209 40,59.6 V 56.4 C 40,56.1791 40.1791,56 40.4,56 H 44 v 4 z m -8,0 H 32 V 56.4 C 32,56.1791 31.8209,56 31.6,56 H 20 V 52.4 C 20,52.1791 19.8209,52 19.6,52 H 16.4 C 16.1791,52 16,51.8209 16,51.6 V 48.4 C 16,48.1791 16.1791,48 16.4,48 h 19.2 c 0.2209,0 0.4,0.1791 0.4,0.4 v 11.2 c 0,0.2209 -0.1791,0.4 -0.4,0.4 z m 12,-4 H 44 V 52.4 C 44,52.1791 43.8209,52 43.6,52 H 40.4 C 40.1791,52 40,51.8209 40,51.6 V 48.4 C 40,48.1791 40.1791,48 40.4,48 H 51.6 C 51.8209,48 52,47.8209 52,47.6 V 44 h 3.6 C 55.8209,44 56,43.8209 56,43.6 V 40 h 4 v 3.6 c 0,0.2209 0.1791,0.4 0.4,0.4 H 64 v 8 H 60 V 48.4 C 60,48.1791 59.8209,48 59.6,48 H 56.4 C 56.1791,48 56,48.1791 56,48.4 V 52 H 48.4 C 48.1791,52 48,52.1791 48,52.4 v 3.2 c 0,0.2209 -0.1791,0.4 -0.4,0.4 z m 56,-4 h -3.2 c -0.221,0 -0.4,-0.1791 -0.4,-0.4 v -3.2 c 0,-0.2209 0.179,-0.4 0.4,-0.4 h 3.2 c 0.221,0 0.4,0.1791 0.4,0.4 v 3.2 c 0,0.2209 -0.179,0.4 -0.4,0.4 z m -24,0 H 76.4 C 76.1791,52 76,51.8209 76,51.6 V 44 h 4 v 8 z m 36,-8 H 88.4 C 88.1791,44 88,43.8209 88,43.6 V 16.4 C 88,16.1791 88.1791,16 88.4,16 h 27.2 c 0.221,0 0.4,0.1791 0.4,0.4 v 27.2 c 0,0.2209 -0.179,0.4 -0.4,0.4 z m -32,0 H 80 V 40.4 C 80,40.1791 79.8209,40 79.6,40 H 76.4 C 76.1791,40 76,40.1791 76,40.4 V 44 H 72.4 C 72.1791,44 72,43.8209 72,43.6 V 36 h 7.6 C 79.8209,36 80,35.8209 80,35.6 V 32.4 C 80,32.1791 80.1791,32 80.4,32 h 3.2 c 0.2209,0 0.4,0.1791 0.4,0.4 v 11.2 c 0,0.2209 -0.1791,0.4 -0.4,0.4 z m -16,0 H 64 V 40.4 C 64,40.1791 63.8209,40 63.6,40 H 60 V 36.4 C 60,36.1791 60.1791,36 60.4,36 H 68 v 7.6 c 0,0.2209 -0.1791,0.4 -0.4,0.4 z m -16,0 H 48.4 C 48.1791,44 48,43.8209 48,43.6 V 36.4 C 48,36.1791 48.1791,36 48.4,36 h 3.2 C 51.8209,36 52,35.8209 52,35.6 V 32.4 C 52,32.1791 51.8209,32 51.6,32 H 48.4 C 48.1791,32 48,31.8209 48,31.6 V 28.4 C 48,28.1791 48.1791,28 48.4,28 h 11.2 c 0.2209,0 0.4,0.1791 0.4,0.4 v 3.2 C 60,31.8209 59.8209,32 59.6,32 H 56.4 C 56.1791,32 56,32.1791 56,32.4 V 40 H 52.4 C 52.1791,40 52,40.1791 52,40.4 V 44 Z m -8,0 H 16.4 C 16.1791,44 16,43.8209 16,43.6 V 16.4 C 16,16.1791 16.1791,16 16.4,16 h 27.2 c 0.2209,0 0.4,0.1791 0.4,0.4 V 43.6 C 44,43.8209 43.8209,44 43.6,44 Z M 112,39.6 V 20.4 C 112,20.1791 111.821,20 111.6,20 H 92.4 C 92.1791,20 92,20.1791 92,20.4 v 19.2 c 0,0.2209 0.1791,0.4 0.4,0.4 h 19.2 c 0.221,0 0.4,-0.1791 0.4,-0.4 z m -72,0 V 20.4 C 40,20.1791 39.8209,20 39.6,20 H 20.4 C 20.1791,20 20,20.1791 20,20.4 v 19.2 c 0,0.2209 0.1791,0.4 0.4,0.4 H 39.6 C 39.8209,40 40,39.8209 40,39.6 Z M 107.6,36 H 96.4 C 96.1791,36 96,35.8209 96,35.6 V 24.4 C 96,24.1791 96.1791,24 96.4,24 h 11.2 c 0.221,0 0.4,0.1791 0.4,0.4 v 11.2 c 0,0.2209 -0.179,0.4 -0.4,0.4 z m -36,0 H 68 V 32.4 C 68,32.1791 67.8209,32 67.6,32 H 64.4 C 64.1791,32 64,31.8209 64,31.6 V 24.4 C 64,24.1791 64.1791,24 64.4,24 h 3.2 c 0.2209,0 0.4,0.1791 0.4,0.4 v 3.2 c 0,0.2209 0.1791,0.4 0.4,0.4 H 76 v 3.6 C 76,31.8209 75.8209,32 75.6,32 H 72.4 C 72.1791,32 72,32.1791 72,32.4 V 36 Z m -36,0 H 24.4 C 24.1791,36 24,35.8209 24,35.6 V 24.4 C 24,24.1791 24.1791,24 24.4,24 h 11.2 c 0.2209,0 0.4,0.1791 0.4,0.4 v 11.2 c 0,0.2209 -0.1791,0.4 -0.4,0.4 z m 48,-8 H 76 v -8 h 3.6 C 79.8209,20 80,19.8209 80,19.6 V 16.4 C 80,16.1791 80.1791,16 80.4,16 h 3.2 c 0.2209,0 0.4,0.1791 0.4,0.4 v 11.2 c 0,0.2209 -0.1791,0.4 -0.4,0.4 z m -24,-4 H 56.4 C 56.1791,24 56,23.8209 56,23.6 V 16.4 C 56,16.1791 56.1791,16 56.4,16 h 3.2 c 0.2209,0 0.4,0.1791 0.4,0.4 v 7.2 c 0,0.2209 -0.1791,0.4 -0.4,0.4 z m -8,0 H 48.4 C 48.1791,24 48,23.8209 48,23.6 V 20.4 C 48,20.1791 48.1791,20 48.4,20 h 3.2 c 0.2209,0 0.4,0.1791 0.4,0.4 v 3.2 c 0,0.2209 -0.1791,0.4 -0.4,0.4 z m 24,-4 H 72.4 C 72.1791,20 72,19.8209 72,19.6 V 16.4 C 72,16.1791 72.1791,16 72.4,16 h 3.2 c 0.2209,0 0.4,0.1791 0.4,0.4 V 20 Z m -8,0 H 64.4 C 64.1791,20 64,19.8209 64,19.6 V 16.4 C 64,16.1791 64.1791,16 64.4,16 h 3.2 c 0.2209,0 0.4,0.1791 0.4,0.4 v 3.2 c 0,0.2209 -0.1791,0.4 -0.4,0.4 z"
           id="path1"
           inkscape:export-filename="qr.svg"
           inkscape:export-xdpi="96"
           inkscape:export-ydpi="96" />
      </g>
    </g>
  </g>
</svg>
